<svg width="25" height="33" viewBox="0 0 25 33" fill="none" xmlns="http://www.w3.org/2000/svg">
<path d="M23.8743 33C23.1238 33 22.6548 32.5757 22.6548 31.8686C22.6548 31.1143 23.1238 30.6429 23.8743 30.6429C24.531 30.6429 25 31.1143 25 31.8686C25 32.5757 24.531 33 23.8743 33ZM22.9831 31.8214C22.9831 32.34 23.3583 32.67 23.8743 32.67C24.3433 32.67 24.6717 32.34 24.6717 31.8214C24.6717 31.35 24.3433 30.9729 23.8743 30.9729C23.3583 30.9729 22.9831 31.35 22.9831 31.8214ZM19.9812 28.2857C19.2308 28.2857 18.7617 27.8614 18.7617 27.1543C18.7617 26.4 19.2308 25.9286 19.9812 25.9286C20.6379 25.9286 21.1069 26.4 21.1069 27.1543C21.1069 27.8614 20.6379 28.2857 19.9812 28.2857ZM19.0901 27.1071C19.0901 27.6257 19.4653 27.9557 19.9812 27.9557C20.4503 27.9557 20.7786 27.6257 20.7786 27.1071C20.7786 26.6357 20.4503 26.2586 19.9812 26.2586C19.4653 26.2586 19.0901 26.6357 19.0901 27.1071ZM19.9812 30.6429C19.2308 30.6429 18.7617 30.2186 18.7617 29.5114C18.7617 28.7571 19.2308 28.2857 19.9812 28.2857C20.6379 28.2857 21.1069 28.7571 21.1069 29.5114C21.1069 30.2186 20.6379 30.6429 19.9812 30.6429ZM19.0901 29.4643C19.0901 29.9829 19.4653 30.3129 19.9812 30.3129C20.4503 30.3129 20.7786 29.9829 20.7786 29.4643C20.7786 28.9929 20.4503 28.6157 19.9812 28.6157C19.4653 28.6157 19.0901 28.9929 19.0901 29.4643ZM22.3265 30.6429C21.576 30.6429 21.1069 30.2186 21.1069 29.5114C21.1069 28.7571 21.576 28.2857 22.3265 28.2857C22.9831 28.2857 23.4522 28.7571 23.4522 29.5114C23.4522 30.2186 22.9831 30.6429 22.3265 30.6429ZM21.4353 29.4643C21.4353 29.9829 21.8105 30.3129 22.3265 30.3129C22.7955 30.3129 23.1238 29.9829 23.1238 29.4643C23.1238 28.9929 22.7955 28.6157 22.3265 28.6157C21.8105 28.6157 21.4353 28.9929 21.4353 29.4643ZM22.3265 23.5714C21.576 23.5714 21.1069 23.1471 21.1069 22.44C21.1069 21.6857 21.576 21.2143 22.3265 21.2143C22.9831 21.2143 23.4522 21.6857 23.4522 22.44C23.4522 23.1471 22.9831 23.5714 22.3265 23.5714ZM21.4353 22.3929C21.4353 22.9114 21.8105 23.2414 22.3265 23.2414C22.7955 23.2414 23.1238 22.9114 23.1238 22.3929C23.1238 21.9214 22.7955 21.5443 22.3265 21.5443C21.8105 21.5443 21.4353 21.9214 21.4353 22.3929ZM19.9812 28.2857C19.2308 28.2857 18.7617 27.8614 18.7617 27.1543C18.7617 26.4 19.2308 25.9286 19.9812 25.9286C20.6379 25.9286 21.1069 26.4 21.1069 27.1543C21.1069 27.8614 20.6379 28.2857 19.9812 28.2857ZM19.0901 27.1071C19.0901 27.6257 19.4653 27.9557 19.9812 27.9557C20.4503 27.9557 20.7786 27.6257 20.7786 27.1071C20.7786 26.6357 20.4503 26.2586 19.9812 26.2586C19.4653 26.2586 19.0901 26.6357 19.0901 27.1071ZM23.8743 25.9286C23.1238 25.9286 22.6548 25.5043 22.6548 24.7971C22.6548 24.0429 23.1238 23.5714 23.8743 23.5714C24.531 23.5714 25 24.0429 25 24.7971C25 25.5043 24.531 25.9286 23.8743 25.9286ZM22.9831 24.75C22.9831 25.2686 23.3583 25.5986 23.8743 25.5986C24.3433 25.5986 24.6717 25.2686 24.6717 24.75C24.6717 24.2786 24.3433 23.9014 23.8743 23.9014C23.3583 23.9014 22.9831 24.2786 22.9831 24.75ZM19.9812 25.9286C19.2308 25.9286 18.7617 25.5043 18.7617 24.7971C18.7617 24.0429 19.2308 23.5714 19.9812 23.5714C20.6379 23.5714 21.1069 24.0429 21.1069 24.7971C21.1069 25.5043 20.6379 25.9286 19.9812 25.9286ZM19.0901 24.75C19.0901 25.2686 19.4653 25.5986 19.9812 25.5986C20.4503 25.5986 20.7786 25.2686 20.7786 24.75C20.7786 24.2786 20.4503 23.9014 19.9812 23.9014C19.4653 23.9014 19.0901 24.2786 19.0901 24.75ZM22.3265 23.5714C21.576 23.5714 21.1069 23.1471 21.1069 22.44C21.1069 21.6857 21.576 21.2143 22.3265 21.2143C22.9831 21.2143 23.4522 21.6857 23.4522 22.44C23.4522 23.1471 22.9831 23.5714 22.3265 23.5714ZM21.4353 22.3929C21.4353 22.9114 21.8105 23.2414 22.3265 23.2414C22.7955 23.2414 23.1238 22.9114 23.1238 22.3929C23.1238 21.9214 22.7955 21.5443 22.3265 21.5443C21.8105 21.5443 21.4353 21.9214 21.4353 22.3929ZM19.9812 18.8571C19.2308 18.8571 18.7617 18.4329 18.7617 17.7257C18.7617 16.9714 19.2308 16.5 19.9812 16.5C20.6379 16.5 21.1069 16.9714 21.1069 17.7257C21.1069 18.4329 20.6379 18.8571 19.9812 18.8571ZM19.0901 17.6786C19.0901 18.1971 19.4653 18.5271 19.9812 18.5271C20.4503 18.5271 20.7786 18.1971 20.7786 17.6786C20.7786 17.2071 20.4503 16.83 19.9812 16.83C19.4653 16.83 19.0901 17.2071 19.0901 17.6786ZM22.3265 21.2143C21.576 21.2143 21.1069 20.79 21.1069 20.0829C21.1069 19.3286 21.576 18.8571 22.3265 18.8571C22.9831 18.8571 23.4522 19.3286 23.4522 20.0829C23.4522 20.79 22.9831 21.2143 22.3265 21.2143ZM21.4353 20.0357C21.4353 20.5543 21.8105 20.8843 22.3265 20.8843C22.7955 20.8843 23.1238 20.5543 23.1238 20.0357C23.1238 19.5643 22.7955 19.1871 22.3265 19.1871C21.8105 19.1871 21.4353 19.5643 21.4353 20.0357ZM21.5291 21.2143C20.7786 21.2143 20.3096 20.79 20.3096 20.0829C20.3096 19.3286 20.7786 18.8571 21.5291 18.8571C22.1857 18.8571 22.6548 19.3286 22.6548 20.0829C22.6548 20.79 22.1857 21.2143 21.5291 21.2143ZM20.6379 20.0357C20.6379 20.5543 21.0131 20.8843 21.5291 20.8843C21.9981 20.8843 22.3265 20.5543 22.3265 20.0357C22.3265 19.5643 21.9981 19.1871 21.5291 19.1871C21.0131 19.1871 20.6379 19.5643 20.6379 20.0357ZM17.636 28.2857C16.8856 28.2857 16.4165 27.8614 16.4165 27.1543C16.4165 26.4 16.8856 25.9286 17.636 25.9286C18.2927 25.9286 18.7617 26.4 18.7617 27.1543C18.7617 27.8614 18.2927 28.2857 17.636 28.2857ZM16.7448 27.1071C16.7448 27.6257 17.1201 27.9557 17.636 27.9557C18.1051 27.9557 18.4334 27.6257 18.4334 27.1071C18.4334 26.6357 18.1051 26.2586 17.636 26.2586C17.1201 26.2586 16.7448 26.6357 16.7448 27.1071ZM17.636 25.9286C16.8856 25.9286 16.4165 25.5043 16.4165 24.7971C16.4165 24.0429 16.8856 23.5714 17.636 23.5714C18.2927 23.5714 18.7617 24.0429 18.7617 24.7971C18.7617 25.5043 18.2927 25.9286 17.636 25.9286ZM16.7448 24.75C16.7448 25.2686 17.1201 25.5986 17.636 25.5986C18.1051 25.5986 18.4334 25.2686 18.4334 24.75C18.4334 24.2786 18.1051 23.9014 17.636 23.9014C17.1201 23.9014 16.7448 24.2786 16.7448 24.75ZM15.2908 25.9286C14.5403 25.9286 14.0713 25.5043 14.0713 24.7971C14.0713 24.0429 14.5403 23.5714 15.2908 23.5714C15.9475 23.5714 16.4165 24.0429 16.4165 24.7971C16.4165 25.5043 15.9475 25.9286 15.2908 25.9286ZM14.3996 24.75C14.3996 25.2686 14.7749 25.5986 15.2908 25.5986C15.7598 25.5986 16.0882 25.2686 16.0882 24.75C16.0882 24.2786 15.7598 23.9014 15.2908 23.9014C14.7749 23.9014 14.3996 24.2786 14.3996 24.75ZM16.8386 28.2857C16.0882 28.2857 15.6191 27.8614 15.6191 27.1543C15.6191 26.4 16.0882 25.9286 16.8386 25.9286C17.4953 25.9286 17.9644 26.4 17.9644 27.1543C17.9644 27.8614 17.4953 28.2857 16.8386 28.2857ZM15.9475 27.1071C15.9475 27.6257 16.3227 27.9557 16.8386 27.9557C17.3077 27.9557 17.636 27.6257 17.636 27.1071C17.636 26.6357 17.3077 26.2586 16.8386 26.2586C16.3227 26.2586 15.9475 26.6357 15.9475 27.1071ZM12.9456 25.9286C12.1951 25.9286 11.7261 25.5043 11.7261 24.7971C11.7261 24.0429 12.1951 23.5714 12.9456 23.5714C13.6023 23.5714 14.0713 24.0429 14.0713 24.7971C14.0713 25.5043 13.6023 25.9286 12.9456 25.9286ZM12.0544 24.75C12.0544 25.2686 12.4296 25.5986 12.9456 25.5986C13.4146 25.5986 13.743 25.2686 13.743 24.75C13.743 24.2786 13.4146 23.9014 12.9456 23.9014C12.4296 23.9014 12.0544 24.2786 12.0544 24.75ZM12.9456 23.5714C12.1951 23.5714 11.7261 23.1471 11.7261 22.44C11.7261 21.6857 12.1951 21.2143 12.9456 21.2143C13.6023 21.2143 14.0713 21.6857 14.0713 22.44C14.0713 23.1471 13.6023 23.5714 12.9456 23.5714ZM12.0544 22.3929C12.0544 22.9114 12.4296 23.2414 12.9456 23.2414C13.4146 23.2414 13.743 22.9114 13.743 22.3929C13.743 21.9214 13.4146 21.5443 12.9456 21.5443C12.4296 21.5443 12.0544 21.9214 12.0544 22.3929ZM12.1482 25.9286C11.3977 25.9286 10.9287 25.5043 10.9287 24.7971C10.9287 24.0429 11.3977 23.5714 12.1482 23.5714C12.8049 23.5714 13.2739 24.0429 13.2739 24.7971C13.2739 25.5043 12.8049 25.9286 12.1482 25.9286ZM11.257 24.75C11.257 25.2686 11.6323 25.5986 12.1482 25.5986C12.6173 25.5986 12.9456 25.2686 12.9456 24.75C12.9456 24.2786 12.6173 23.9014 12.1482 23.9014C11.6323 23.9014 11.257 24.2786 11.257 24.75ZM10.6004 28.2857C9.84991 28.2857 9.38086 27.8614 9.38086 27.1543C9.38086 26.4 9.84991 25.9286 10.6004 25.9286C11.257 25.9286 11.7261 26.4 11.7261 27.1543C11.7261 27.8614 11.257 28.2857 10.6004 28.2857ZM9.70919 27.1071C9.70919 27.6257 10.0844 27.9557 10.6004 27.9557C11.0694 27.9557 11.3977 27.6257 11.3977 27.1071C11.3977 26.6357 11.0694 26.2586 10.6004 26.2586C10.0844 26.2586 9.70919 26.6357 9.70919 27.1071ZM8.25516 21.2143C7.50469 21.2143 7.03565 20.79 7.03565 20.0829C7.03565 19.3286 7.50469 18.8571 8.25516 18.8571C8.91182 18.8571 9.38086 19.3286 9.38086 20.0829C9.38086 20.79 8.91182 21.2143 8.25516 21.2143ZM7.36398 20.0357C7.36398 20.5543 7.73921 20.8843 8.25516 20.8843C8.7242 20.8843 9.05253 20.5543 9.05253 20.0357C9.05253 19.5643 8.7242 19.1871 8.25516 19.1871C7.73921 19.1871 7.36398 19.5643 7.36398 20.0357ZM8.25516 28.2857C7.50469 28.2857 7.03565 27.8614 7.03565 27.1543C7.03565 26.4 7.50469 25.9286 8.25516 25.9286C8.91182 25.9286 9.38086 26.4 9.38086 27.1543C9.38086 27.8614 8.91182 28.2857 8.25516 28.2857ZM7.36398 27.1071C7.36398 27.6257 7.73921 27.9557 8.25516 27.9557C8.7242 27.9557 9.05253 27.6257 9.05253 27.1071C9.05253 26.6357 8.7242 26.2586 8.25516 26.2586C7.73921 26.2586 7.36398 26.6357 7.36398 27.1071ZM5.90994 25.9286C5.15947 25.9286 4.69043 25.5043 4.69043 24.7971C4.69043 24.0429 5.15947 23.5714 5.90994 23.5714C6.5666 23.5714 7.03565 24.0429 7.03565 24.7971C7.03565 25.5043 6.5666 25.9286 5.90994 25.9286ZM5.01876 24.75C5.01876 25.2686 5.394 25.5986 5.90994 25.5986C6.37899 25.5986 6.70732 25.2686 6.70732 24.75C6.70732 24.2786 6.37899 23.9014 5.90994 23.9014C5.394 23.9014 5.01876 24.2786 5.01876 24.75ZM5.90994 28.2857C5.15947 28.2857 4.69043 27.8614 4.69043 27.1543C4.69043 26.4 5.15947 25.9286 5.90994 25.9286C6.5666 25.9286 7.03565 26.4 7.03565 27.1543C7.03565 27.8614 6.5666 28.2857 5.90994 28.2857ZM5.01876 27.1071C5.01876 27.6257 5.394 27.9557 5.90994 27.9557C6.37899 27.9557 6.70732 27.6257 6.70732 27.1071C6.70732 26.6357 6.37899 26.2586 5.90994 26.2586C5.394 26.2586 5.01876 26.6357 5.01876 27.1071ZM3.56473 25.9286C2.81426 25.9286 2.34522 25.5043 2.34522 24.7971C2.34522 24.0429 2.81426 23.5714 3.56473 23.5714C4.22139 23.5714 4.69043 24.0429 4.69043 24.7971C4.69043 25.5043 4.22139 25.9286 3.56473 25.9286ZM2.67355 24.75C2.67355 25.2686 3.04878 25.5986 3.56473 25.5986C4.03377 25.5986 4.3621 25.2686 4.3621 24.75C4.3621 24.2786 4.03377 23.9014 3.56473 23.9014C3.04878 23.9014 2.67355 24.2786 2.67355 24.75ZM3.56473 28.2857C2.81426 28.2857 2.34522 27.8614 2.34522 27.1543C2.34522 26.4 2.81426 25.9286 3.56473 25.9286C4.22139 25.9286 4.69043 26.4 4.69043 27.1543C4.69043 27.8614 4.22139 28.2857 3.56473 28.2857ZM2.67355 27.1071C2.67355 27.6257 3.04878 27.9557 3.56473 27.9557C4.03377 27.9557 4.3621 27.6257 4.3621 27.1071C4.3621 26.6357 4.03377 26.2586 3.56473 26.2586C3.04878 26.2586 2.67355 26.6357 2.67355 27.1071ZM5.11257 30.6429C4.3621 30.6429 3.89306 30.2186 3.89306 29.5114C3.89306 28.7571 4.3621 28.2857 5.11257 28.2857C5.76923 28.2857 6.23827 28.7571 6.23827 29.5114C6.23827 30.2186 5.76923 30.6429 5.11257 30.6429ZM4.22139 29.4643C4.22139 29.9829 4.59662 30.3129 5.11257 30.3129C5.58161 30.3129 5.90994 29.9829 5.90994 29.4643C5.90994 28.9929 5.58161 28.6157 5.11257 28.6157C4.59662 28.6157 4.22139 28.9929 4.22139 29.4643ZM3.56473 33C2.81426 33 2.34522 32.5757 2.34522 31.8686C2.34522 31.1143 2.81426 30.6429 3.56473 30.6429C4.22139 30.6429 4.69043 31.1143 4.69043 31.8686C4.69043 32.5757 4.22139 33 3.56473 33ZM2.67355 31.8214C2.67355 32.34 3.04878 32.67 3.56473 32.67C4.03377 32.67 4.3621 32.34 4.3621 31.8214C4.3621 31.35 4.03377 30.9729 3.56473 30.9729C3.04878 30.9729 2.67355 31.35 2.67355 31.8214ZM3.56473 23.5714C2.81426 23.5714 2.34522 23.1471 2.34522 22.44C2.34522 21.6857 2.81426 21.2143 3.56473 21.2143C4.22139 21.2143 4.69043 21.6857 4.69043 22.44C4.69043 23.1471 4.22139 23.5714 3.56473 23.5714ZM2.67355 22.3929C2.67355 22.9114 3.04878 23.2414 3.56473 23.2414C4.03377 23.2414 4.3621 22.9114 4.3621 22.3929C4.3621 21.9214 4.03377 21.5443 3.56473 21.5443C3.04878 21.5443 2.67355 21.9214 2.67355 22.3929ZM3.56473 21.2143C2.81426 21.2143 2.34522 20.79 2.34522 20.0829C2.34522 19.3286 2.81426 18.8571 3.56473 18.8571C4.22139 18.8571 4.69043 19.3286 4.69043 20.0829C4.69043 20.79 4.22139 21.2143 3.56473 21.2143ZM2.67355 20.0357C2.67355 20.5543 3.04878 20.8843 3.56473 20.8843C4.03377 20.8843 4.3621 20.5543 4.3621 20.0357C4.3621 19.5643 4.03377 19.1871 3.56473 19.1871C3.04878 19.1871 2.67355 19.5643 2.67355 20.0357ZM2.76735 21.2143C2.01689 21.2143 1.54784 20.79 1.54784 20.0829C1.54784 19.3286 2.01689 18.8571 2.76735 18.8571C3.42401 18.8571 3.89306 19.3286 3.89306 20.0829C3.89306 20.79 3.42401 21.2143 2.76735 21.2143ZM1.87617 20.0357C1.87617 20.5543 2.25141 20.8843 2.76735 20.8843C3.2364 20.8843 3.56473 20.5543 3.56473 20.0357C3.56473 19.5643 3.2364 19.1871 2.76735 19.1871C2.25141 19.1871 1.87617 19.5643 1.87617 20.0357ZM1.21951 23.5714C0.469043 23.5714 0 23.1471 0 22.44C0 21.6857 0.469043 21.2143 1.21951 21.2143C1.87617 21.2143 2.34522 21.6857 2.34522 22.44C2.34522 23.1471 1.87617 23.5714 1.21951 23.5714ZM0.32833 22.3929C0.32833 22.9114 0.703564 23.2414 1.21951 23.2414C1.68856 23.2414 2.01689 22.9114 2.01689 22.3929C2.01689 21.9214 1.68856 21.5443 1.21951 21.5443C0.703564 21.5443 0.32833 21.9214 0.32833 22.3929ZM2.76735 21.2143C2.01689 21.2143 1.54784 20.79 1.54784 20.0829C1.54784 19.3286 2.01689 18.8571 2.76735 18.8571C3.42401 18.8571 3.89306 19.3286 3.89306 20.0829C3.89306 20.79 3.42401 21.2143 2.76735 21.2143ZM1.87617 20.0357C1.87617 20.5543 2.25141 20.8843 2.76735 20.8843C3.2364 20.8843 3.56473 20.5543 3.56473 20.0357C3.56473 19.5643 3.2364 19.1871 2.76735 19.1871C2.25141 19.1871 1.87617 19.5643 1.87617 20.0357ZM1.21951 28.2857C0.469043 28.2857 0 27.8614 0 27.1543C0 26.4 0.469043 25.9286 1.21951 25.9286C1.87617 25.9286 2.34522 26.4 2.34522 27.1543C2.34522 27.8614 1.87617 28.2857 1.21951 28.2857ZM0.32833 27.1071C0.32833 27.6257 0.703564 27.9557 1.21951 27.9557C1.68856 27.9557 2.01689 27.6257 2.01689 27.1071C2.01689 26.6357 1.68856 26.2586 1.21951 26.2586C0.703564 26.2586 0.32833 26.6357 0.32833 27.1071ZM1.21951 30.6429C0.469043 30.6429 0 30.2186 0 29.5114C0 28.7571 0.469043 28.2857 1.21951 28.2857C1.87617 28.2857 2.34522 28.7571 2.34522 29.5114C2.34522 30.2186 1.87617 30.6429 1.21951 30.6429ZM0.32833 29.4643C0.32833 29.9829 0.703564 30.3129 1.21951 30.3129C1.68856 30.3129 2.01689 29.9829 2.01689 29.4643C2.01689 28.9929 1.68856 28.6157 1.21951 28.6157C0.703564 28.6157 0.32833 28.9929 0.32833 29.4643ZM1.21951 28.2857C0.469043 28.2857 0 27.8614 0 27.1543C0 26.4 0.469043 25.9286 1.21951 25.9286C1.87617 25.9286 2.34522 26.4 2.34522 27.1543C2.34522 27.8614 1.87617 28.2857 1.21951 28.2857ZM0.32833 27.1071C0.32833 27.6257 0.703564 27.9557 1.21951 27.9557C1.68856 27.9557 2.01689 27.6257 2.01689 27.1071C2.01689 26.6357 1.68856 26.2586 1.21951 26.2586C0.703564 26.2586 0.32833 26.6357 0.32833 27.1071ZM5.90994 14.1429C5.15947 14.1429 4.69043 13.7186 4.69043 13.0114C4.69043 12.2571 5.15947 11.7857 5.90994 11.7857C6.5666 11.7857 7.03565 12.2571 7.03565 13.0114C7.03565 13.7186 6.5666 14.1429 5.90994 14.1429ZM5.01876 12.9643C5.01876 13.4829 5.394 13.8129 5.90994 13.8129C6.37899 13.8129 6.70732 13.4829 6.70732 12.9643C6.70732 12.4929 6.37899 12.1157 5.90994 12.1157C5.394 12.1157 5.01876 12.4929 5.01876 12.9643ZM8.25516 18.8571C7.50469 18.8571 7.03565 18.4329 7.03565 17.7257C7.03565 16.9714 7.50469 16.5 8.25516 16.5C8.91182 16.5 9.38086 16.9714 9.38086 17.7257C9.38086 18.4329 8.91182 18.8571 8.25516 18.8571ZM7.36398 17.6786C7.36398 18.1971 7.73921 18.5271 8.25516 18.5271C8.7242 18.5271 9.05253 18.1971 9.05253 17.6786C9.05253 17.2071 8.7242 16.83 8.25516 16.83C7.73921 16.83 7.36398 17.2071 7.36398 17.6786ZM17.636 18.8571C16.8856 18.8571 16.4165 18.4329 16.4165 17.7257C16.4165 16.9714 16.8856 16.5 17.636 16.5C18.2927 16.5 18.7617 16.9714 18.7617 17.7257C18.7617 18.4329 18.2927 18.8571 17.636 18.8571ZM16.7448 17.6786C16.7448 18.1971 17.1201 18.5271 17.636 18.5271C18.1051 18.5271 18.4334 18.1971 18.4334 17.6786C18.4334 17.2071 18.1051 16.83 17.636 16.83C17.1201 16.83 16.7448 17.2071 16.7448 17.6786ZM15.2908 18.8571C14.5403 18.8571 14.0713 18.4329 14.0713 17.7257C14.0713 16.9714 14.5403 16.5 15.2908 16.5C15.9475 16.5 16.4165 16.9714 16.4165 17.7257C16.4165 18.4329 15.9475 18.8571 15.2908 18.8571ZM14.3996 17.6786C14.3996 18.1971 14.7749 18.5271 15.2908 18.5271C15.7598 18.5271 16.0882 18.1971 16.0882 17.6786C16.0882 17.2071 15.7598 16.83 15.2908 16.83C14.7749 16.83 14.3996 17.2071 14.3996 17.6786ZM17.636 16.5C16.8856 16.5 16.4165 16.0757 16.4165 15.3686C16.4165 14.6143 16.8856 14.1429 17.636 14.1429C18.2927 14.1429 18.7617 14.6143 18.7617 15.3686C18.7617 16.0757 18.2927 16.5 17.636 16.5ZM16.7448 15.3214C16.7448 15.84 17.1201 16.17 17.636 16.17C18.1051 16.17 18.4334 15.84 18.4334 15.3214C18.4334 14.85 18.1051 14.4729 17.636 14.4729C17.1201 14.4729 16.7448 14.85 16.7448 15.3214ZM16.8386 16.5C16.0882 16.5 15.6191 16.0757 15.6191 15.3686C15.6191 14.6143 16.0882 14.1429 16.8386 14.1429C17.4953 14.1429 17.9644 14.6143 17.9644 15.3686C17.9644 16.0757 17.4953 16.5 16.8386 16.5ZM15.9475 15.3214C15.9475 15.84 16.3227 16.17 16.8386 16.17C17.3077 16.17 17.636 15.84 17.636 15.3214C17.636 14.85 17.3077 14.4729 16.8386 14.4729C16.3227 14.4729 15.9475 14.85 15.9475 15.3214ZM5.90994 16.5C5.15947 16.5 4.69043 16.0757 4.69043 15.3686C4.69043 14.6143 5.15947 14.1429 5.90994 14.1429C6.5666 14.1429 7.03565 14.6143 7.03565 15.3686C7.03565 16.0757 6.5666 16.5 5.90994 16.5ZM5.01876 15.3214C5.01876 15.84 5.394 16.17 5.90994 16.17C6.37899 16.17 6.70732 15.84 6.70732 15.3214C6.70732 14.85 6.37899 14.4729 5.90994 14.4729C5.394 14.4729 5.01876 14.85 5.01876 15.3214ZM8.25516 16.5C7.50469 16.5 7.03565 16.0757 7.03565 15.3686C7.03565 14.6143 7.50469 14.1429 8.25516 14.1429C8.91182 14.1429 9.38086 14.6143 9.38086 15.3686C9.38086 16.0757 8.91182 16.5 8.25516 16.5ZM7.36398 15.3214C7.36398 15.84 7.73921 16.17 8.25516 16.17C8.7242 16.17 9.05253 15.84 9.05253 15.3214C9.05253 14.85 8.7242 14.4729 8.25516 14.4729C7.73921 14.4729 7.36398 14.85 7.36398 15.3214ZM7.45779 9.42857C6.70732 9.42857 6.23827 9.00429 6.23827 8.29714C6.23827 7.54286 6.70732 7.07143 7.45779 7.07143C8.11445 7.07143 8.58349 7.54286 8.58349 8.29714C8.58349 9.00429 8.11445 9.42857 7.45779 9.42857ZM6.5666 8.25C6.5666 8.76857 6.94184 9.09857 7.45779 9.09857C7.92683 9.09857 8.25516 8.76857 8.25516 8.25C8.25516 7.77857 7.92683 7.40143 7.45779 7.40143C6.94184 7.40143 6.5666 7.77857 6.5666 8.25ZM8.25516 14.1429C7.50469 14.1429 7.03565 13.7186 7.03565 13.0114C7.03565 12.2571 7.50469 11.7857 8.25516 11.7857C8.91182 11.7857 9.38086 12.2571 9.38086 13.0114C9.38086 13.7186 8.91182 14.1429 8.25516 14.1429ZM7.36398 12.9643C7.36398 13.4829 7.73921 13.8129 8.25516 13.8129C8.7242 13.8129 9.05253 13.4829 9.05253 12.9643C9.05253 12.4929 8.7242 12.1157 8.25516 12.1157C7.73921 12.1157 7.36398 12.4929 7.36398 12.9643ZM5.90994 11.7857C5.15947 11.7857 4.69043 11.3614 4.69043 10.6543C4.69043 9.9 5.15947 9.42857 5.90994 9.42857C6.5666 9.42857 7.03565 9.9 7.03565 10.6543C7.03565 11.3614 6.5666 11.7857 5.90994 11.7857ZM5.01876 10.6071C5.01876 11.1257 5.394 11.4557 5.90994 11.4557C6.37899 11.4557 6.70732 11.1257 6.70732 10.6071C6.70732 10.1357 6.37899 9.75857 5.90994 9.75857C5.394 9.75857 5.01876 10.1357 5.01876 10.6071ZM8.25516 11.7857C7.50469 11.7857 7.03565 11.3614 7.03565 10.6543C7.03565 9.9 7.50469 9.42857 8.25516 9.42857C8.91182 9.42857 9.38086 9.9 9.38086 10.6543C9.38086 11.3614 8.91182 11.7857 8.25516 11.7857ZM7.36398 10.6071C7.36398 11.1257 7.73921 11.4557 8.25516 11.4557C8.7242 11.4557 9.05253 11.1257 9.05253 10.6071C9.05253 10.1357 8.7242 9.75857 8.25516 9.75857C7.73921 9.75857 7.36398 10.1357 7.36398 10.6071ZM15.2908 14.1429C14.5403 14.1429 14.0713 13.7186 14.0713 13.0114C14.0713 12.2571 14.5403 11.7857 15.2908 11.7857C15.9475 11.7857 16.4165 12.2571 16.4165 13.0114C16.4165 13.7186 15.9475 14.1429 15.2908 14.1429ZM14.3996 12.9643C14.3996 13.4829 14.7749 13.8129 15.2908 13.8129C15.7598 13.8129 16.0882 13.4829 16.0882 12.9643C16.0882 12.4929 15.7598 12.1157 15.2908 12.1157C14.7749 12.1157 14.3996 12.4929 14.3996 12.9643ZM17.636 14.1429C16.8856 14.1429 16.4165 13.7186 16.4165 13.0114C16.4165 12.2571 16.8856 11.7857 17.636 11.7857C18.2927 11.7857 18.7617 12.2571 18.7617 13.0114C18.7617 13.7186 18.2927 14.1429 17.636 14.1429ZM16.7448 12.9643C16.7448 13.4829 17.1201 13.8129 17.636 13.8129C18.1051 13.8129 18.4334 13.4829 18.4334 12.9643C18.4334 12.4929 18.1051 12.1157 17.636 12.1157C17.1201 12.1157 16.7448 12.4929 16.7448 12.9643ZM17.636 11.7857C16.8856 11.7857 16.4165 11.3614 16.4165 10.6543C16.4165 9.9 16.8856 9.42857 17.636 9.42857C18.2927 9.42857 18.7617 9.9 18.7617 10.6543C18.7617 11.3614 18.2927 11.7857 17.636 11.7857ZM16.7448 10.6071C16.7448 11.1257 17.1201 11.4557 17.636 11.4557C18.1051 11.4557 18.4334 11.1257 18.4334 10.6071C18.4334 10.1357 18.1051 9.75857 17.636 9.75857C17.1201 9.75857 16.7448 10.1357 16.7448 10.6071ZM15.2908 11.7857C14.5403 11.7857 14.0713 11.3614 14.0713 10.6543C14.0713 9.9 14.5403 9.42857 15.2908 9.42857C15.9475 9.42857 16.4165 9.9 16.4165 10.6543C16.4165 11.3614 15.9475 11.7857 15.2908 11.7857ZM14.3996 10.6071C14.3996 11.1257 14.7749 11.4557 15.2908 11.4557C15.7598 11.4557 16.0882 11.1257 16.0882 10.6071C16.0882 10.1357 15.7598 9.75857 15.2908 9.75857C14.7749 9.75857 14.3996 10.1357 14.3996 10.6071ZM10.6004 9.42857C9.84991 9.42857 9.38086 9.00429 9.38086 8.29714C9.38086 7.54286 9.84991 7.07143 10.6004 7.07143C11.257 7.07143 11.7261 7.54286 11.7261 8.29714C11.7261 9.00429 11.257 9.42857 10.6004 9.42857ZM9.70919 8.25C9.70919 8.76857 10.0844 9.09857 10.6004 9.09857C11.0694 9.09857 11.3977 8.76857 11.3977 8.25C11.3977 7.77857 11.0694 7.40143 10.6004 7.40143C10.0844 7.40143 9.70919 7.77857 9.70919 8.25ZM14.4934 9.42857C13.743 9.42857 13.2739 9.00429 13.2739 8.29714C13.2739 7.54286 13.743 7.07143 14.4934 7.07143C15.1501 7.07143 15.6191 7.54286 15.6191 8.29714C15.6191 9.00429 15.1501 9.42857 14.4934 9.42857ZM13.6023 8.25C13.6023 8.76857 13.9775 9.09857 14.4934 9.09857C14.9625 9.09857 15.2908 8.76857 15.2908 8.25C15.2908 7.77857 14.9625 7.40143 14.4934 7.40143C13.9775 7.40143 13.6023 7.77857 13.6023 8.25ZM12.9456 7.07143C12.1951 7.07143 11.7261 6.64714 11.7261 5.94C11.7261 5.18571 12.1951 4.71429 12.9456 4.71429C13.6023 4.71429 14.0713 5.18571 14.0713 5.94C14.0713 6.64714 13.6023 7.07143 12.9456 7.07143ZM12.0544 5.89286C12.0544 6.41143 12.4296 6.74143 12.9456 6.74143C13.4146 6.74143 13.743 6.41143 13.743 5.89286C13.743 5.42143 13.4146 5.04429 12.9456 5.04429C12.4296 5.04429 12.0544 5.42143 12.0544 5.89286ZM12.1482 2.35714C11.3977 2.35714 10.9287 1.93286 10.9287 1.22572C10.9287 0.471428 11.3977 0 12.1482 0C12.8049 0 13.2739 0.471428 13.2739 1.22572C13.2739 1.93286 12.8049 2.35714 12.1482 2.35714ZM11.257 1.17857C11.257 1.69714 11.6323 2.02714 12.1482 2.02714C12.6173 2.02714 12.9456 1.69714 12.9456 1.17857C12.9456 0.707142 12.6173 0.330001 12.1482 0.330001C11.6323 0.330001 11.257 0.707142 11.257 1.17857Z" fill="black"/>
</svg>
